<mxfile host="65bd71144e">
    <diagram id="jAxCeK56O9wjtcHRCLRh" name="Page-1">
        <mxGraphModel dx="2113" dy="537" grid="1" gridSize="10" guides="1" tooltips="1" connect="1" arrows="1" fold="1" page="1" pageScale="1" pageWidth="900" pageHeight="500" math="0" shadow="0">
            <root>
                <mxCell id="0"/>
                <mxCell id="1" parent="0"/>
                <mxCell id="12" value="Amazon Cognito" style="outlineConnect=0;fontColor=#232F3E;gradientColor=none;strokeColor=#ffffff;fillColor=#232F3E;dashed=0;verticalLabelPosition=middle;verticalAlign=bottom;align=center;html=1;whiteSpace=wrap;fontSize=10;fontStyle=1;spacing=3;shape=mxgraph.aws4.productIcon;prIcon=mxgraph.aws4.cognito;rounded=1;" vertex="1" parent="1">
                    <mxGeometry x="700" y="160" width="80" height="110" as="geometry"/>
                </mxCell>
                <mxCell id="13" value="Amazon API Gateway" style="outlineConnect=0;fontColor=#232F3E;gradientColor=none;strokeColor=#ffffff;fillColor=#232F3E;dashed=0;verticalLabelPosition=middle;verticalAlign=bottom;align=center;html=1;whiteSpace=wrap;fontSize=10;fontStyle=1;spacing=3;shape=mxgraph.aws4.productIcon;prIcon=mxgraph.aws4.api_gateway;rounded=1;" vertex="1" parent="1">
                    <mxGeometry x="340" y="160" width="80" height="110" as="geometry"/>
                </mxCell>
                <mxCell id="14" value="Amazon S3" style="outlineConnect=0;fontColor=#232F3E;gradientColor=none;strokeColor=#ffffff;fillColor=#232F3E;dashed=0;verticalLabelPosition=middle;verticalAlign=bottom;align=center;html=1;whiteSpace=wrap;fontSize=10;fontStyle=1;spacing=3;shape=mxgraph.aws4.productIcon;prIcon=mxgraph.aws4.s3;rounded=1;" vertex="1" parent="1">
                    <mxGeometry x="220" y="165" width="80" height="100" as="geometry"/>
                </mxCell>
                <mxCell id="15" value="AWS Lambda" style="outlineConnect=0;fontColor=#232F3E;gradientColor=none;strokeColor=#ffffff;fillColor=#232F3E;dashed=0;verticalLabelPosition=middle;verticalAlign=bottom;align=center;html=1;whiteSpace=wrap;fontSize=10;fontStyle=1;spacing=3;shape=mxgraph.aws4.productIcon;prIcon=mxgraph.aws4.lambda;rounded=1;" vertex="1" parent="1">
                    <mxGeometry x="470" y="165" width="80" height="100" as="geometry"/>
                </mxCell>
                <mxCell id="17" value="Amazon DynamoDB" style="outlineConnect=0;fontColor=#232F3E;gradientColor=none;strokeColor=#ffffff;fillColor=#232F3E;dashed=0;verticalLabelPosition=middle;verticalAlign=bottom;align=center;html=1;whiteSpace=wrap;fontSize=10;fontStyle=1;spacing=3;shape=mxgraph.aws4.productIcon;prIcon=mxgraph.aws4.dynamodb;rounded=1;" vertex="1" parent="1">
                    <mxGeometry x="590" y="160" width="80" height="110" as="geometry"/>
                </mxCell>
                <mxCell id="18" value="Amazon Cloudfront" style="outlineConnect=0;fontColor=#232F3E;gradientColor=none;strokeColor=#ffffff;fillColor=#232F3E;dashed=0;verticalLabelPosition=middle;verticalAlign=bottom;align=center;html=1;whiteSpace=wrap;fontSize=10;fontStyle=1;spacing=3;shape=mxgraph.aws4.productIcon;prIcon=mxgraph.aws4.cloudfront;rounded=1;" vertex="1" parent="1">
                    <mxGeometry x="220" y="10" width="80" height="110" as="geometry"/>
                </mxCell>
                <mxCell id="19" value="Amazon Route 53" style="outlineConnect=0;fontColor=#232F3E;gradientColor=none;strokeColor=#ffffff;fillColor=#232F3E;dashed=0;verticalLabelPosition=middle;verticalAlign=bottom;align=center;html=1;whiteSpace=wrap;fontSize=10;fontStyle=1;spacing=3;shape=mxgraph.aws4.productIcon;prIcon=mxgraph.aws4.route_53;rounded=1;" vertex="1" parent="1">
                    <mxGeometry x="90" y="160" width="80" height="110" as="geometry"/>
                </mxCell>
                <mxCell id="23" value="" style="outlineConnect=0;dashed=0;verticalLabelPosition=bottom;verticalAlign=top;align=center;html=1;shape=mxgraph.aws3.s3;fillColor=#E05243;gradientColor=none;rounded=1;" vertex="1" parent="1">
                    <mxGeometry x="604.5" y="323" width="76.5" height="93" as="geometry"/>
                </mxCell>
                <mxCell id="24" value="" style="outlineConnect=0;dashed=0;verticalLabelPosition=bottom;verticalAlign=top;align=center;html=1;shape=mxgraph.aws3.api_gateway;fillColor=#D9A741;gradientColor=none;rounded=1;" vertex="1" parent="1">
                    <mxGeometry x="603.5" y="443" width="76.5" height="93" as="geometry"/>
                </mxCell>
                <mxCell id="25" value="" style="outlineConnect=0;dashed=0;verticalLabelPosition=bottom;verticalAlign=top;align=center;html=1;shape=mxgraph.aws3.lambda;fillColor=#F58534;gradientColor=none;rounded=1;" vertex="1" parent="1">
                    <mxGeometry x="604.5" y="563" width="76.5" height="93" as="geometry"/>
                </mxCell>
                <mxCell id="26" value="S3" style="text;html=1;strokeColor=none;fillColor=none;align=center;verticalAlign=middle;whiteSpace=wrap;rounded=1;" vertex="1" parent="1">
                    <mxGeometry x="687.5" y="354.5" width="60" height="30" as="geometry"/>
                </mxCell>
                <mxCell id="27" value="API Gateway" style="text;html=1;strokeColor=none;fillColor=none;align=center;verticalAlign=middle;whiteSpace=wrap;rounded=1;" vertex="1" parent="1">
                    <mxGeometry x="687.5" y="474.5" width="60" height="30" as="geometry"/>
                </mxCell>
                <mxCell id="28" value="Lambda" style="text;html=1;strokeColor=none;fillColor=none;align=center;verticalAlign=middle;whiteSpace=wrap;rounded=1;" vertex="1" parent="1">
                    <mxGeometry x="687.5" y="594.5" width="60" height="30" as="geometry"/>
                </mxCell>
                <mxCell id="30" value="App" style="rounded=1;whiteSpace=wrap;html=1;fillColor=#f8cecc;strokeColor=#b85450;" vertex="1" parent="1">
                    <mxGeometry x="240" y="340" width="120" height="60" as="geometry"/>
                </mxCell>
                <mxCell id="31" value="API" style="rounded=1;whiteSpace=wrap;html=1;fillColor=#fff2cc;strokeColor=#d6b656;" vertex="1" parent="1">
                    <mxGeometry x="240" y="456.5" width="120" height="60" as="geometry"/>
                </mxCell>
                <mxCell id="32" value="Logic" style="rounded=1;whiteSpace=wrap;html=1;fillColor=#ffe6cc;strokeColor=#d79b00;" vertex="1" parent="1">
                    <mxGeometry x="240" y="576.5" width="120" height="60" as="geometry"/>
                </mxCell>
                <mxCell id="33" value="" style="shape=flexArrow;endArrow=classic;html=1;rounded=1;width=30.833333333333336;endSize=8.55;fillColor=#f8cecc;strokeColor=#b85450;" edge="1" parent="1">
                    <mxGeometry width="50" height="50" relative="1" as="geometry">
                        <mxPoint x="410" y="372.58000000000004" as="sourcePoint"/>
                        <mxPoint x="573.5" y="373" as="targetPoint"/>
                    </mxGeometry>
                </mxCell>
                <mxCell id="34" value="Single Page App" style="edgeLabel;html=1;align=center;verticalAlign=middle;resizable=0;points=[];labelBackgroundColor=none;" vertex="1" connectable="0" parent="33">
                    <mxGeometry x="-0.3931" y="3" relative="1" as="geometry">
                        <mxPoint x="16" y="3" as="offset"/>
                    </mxGeometry>
                </mxCell>
                <mxCell id="35" value="" style="shape=flexArrow;endArrow=classic;html=1;rounded=1;width=30.833333333333336;endSize=8.55;fillColor=#fff2cc;strokeColor=#d6b656;" edge="1" parent="1">
                    <mxGeometry width="50" height="50" relative="1" as="geometry">
                        <mxPoint x="410" y="489.08000000000004" as="sourcePoint"/>
                        <mxPoint x="573.5" y="489" as="targetPoint"/>
                    </mxGeometry>
                </mxCell>
                <mxCell id="36" value="Rest API" style="edgeLabel;html=1;align=center;verticalAlign=middle;resizable=0;points=[];labelBackgroundColor=none;" vertex="1" connectable="0" parent="35">
                    <mxGeometry x="-0.3931" y="3" relative="1" as="geometry">
                        <mxPoint x="24" y="3" as="offset"/>
                    </mxGeometry>
                </mxCell>
                <mxCell id="37" value="" style="shape=flexArrow;endArrow=classic;html=1;rounded=1;width=30.833333333333336;endSize=8.55;fillColor=#ffe6cc;strokeColor=#d79b00;" edge="1" parent="1">
                    <mxGeometry width="50" height="50" relative="1" as="geometry">
                        <mxPoint x="410" y="609.0799999999999" as="sourcePoint"/>
                        <mxPoint x="573.5" y="609" as="targetPoint"/>
                    </mxGeometry>
                </mxCell>
                <mxCell id="38" value="Execute code on demand" style="edgeLabel;html=1;align=center;verticalAlign=middle;resizable=0;points=[];labelBackgroundColor=none;" vertex="1" connectable="0" parent="37">
                    <mxGeometry x="-0.3931" y="3" relative="1" as="geometry">
                        <mxPoint x="30" y="3" as="offset"/>
                    </mxGeometry>
                </mxCell>
                <mxCell id="40" value="DynamoDB" style="text;html=1;strokeColor=none;fillColor=none;align=center;verticalAlign=middle;whiteSpace=wrap;rounded=1;" vertex="1" parent="1">
                    <mxGeometry x="687.5" y="708.5" width="60" height="30" as="geometry"/>
                </mxCell>
                <mxCell id="41" value="Data" style="rounded=1;whiteSpace=wrap;html=1;fillColor=#dae8fc;strokeColor=#6c8ebf;" vertex="1" parent="1">
                    <mxGeometry x="240" y="690.5" width="120" height="60" as="geometry"/>
                </mxCell>
                <mxCell id="42" value="" style="shape=flexArrow;endArrow=classic;html=1;rounded=1;width=30.833333333333336;endSize=8.55;fillColor=#dae8fc;strokeColor=#6c8ebf;" edge="1" parent="1">
                    <mxGeometry width="50" height="50" relative="1" as="geometry">
                        <mxPoint x="410" y="723.0799999999999" as="sourcePoint"/>
                        <mxPoint x="573.5" y="723" as="targetPoint"/>
                    </mxGeometry>
                </mxCell>
                <mxCell id="43" value="Store &amp;amp; retrieve data" style="edgeLabel;html=1;align=center;verticalAlign=middle;resizable=0;points=[];labelBackgroundColor=none;" vertex="1" connectable="0" parent="42">
                    <mxGeometry x="-0.3931" y="3" relative="1" as="geometry">
                        <mxPoint x="30" y="3" as="offset"/>
                    </mxGeometry>
                </mxCell>
                <mxCell id="44" value="" style="outlineConnect=0;dashed=0;verticalLabelPosition=bottom;verticalAlign=top;align=center;html=1;shape=mxgraph.aws3.dynamo_db;fillColor=#2E73B8;gradientColor=none;rounded=1;labelBackgroundColor=none;" vertex="1" parent="1">
                    <mxGeometry x="605.75" y="683" width="72" height="81" as="geometry"/>
                </mxCell>
                <mxCell id="45" value="" style="edgeStyle=orthogonalEdgeStyle;html=1;endArrow=block;elbow=vertical;startArrow=none;endFill=1;strokeColor=#545B64;rounded=0;exitX=0.5;exitY=1;exitDx=0;exitDy=0;entryX=0.5;entryY=0;entryDx=0;entryDy=0;" edge="1" parent="1" source="30" target="31">
                    <mxGeometry width="100" relative="1" as="geometry">
                        <mxPoint x="300" y="420" as="sourcePoint"/>
                        <mxPoint x="400" y="420" as="targetPoint"/>
                    </mxGeometry>
                </mxCell>
                <mxCell id="46" value="" style="edgeStyle=orthogonalEdgeStyle;html=1;endArrow=block;elbow=vertical;startArrow=none;endFill=1;strokeColor=#545B64;rounded=0;" edge="1" parent="1" source="14" target="13">
                    <mxGeometry width="100" relative="1" as="geometry">
                        <mxPoint x="310" y="140" as="sourcePoint"/>
                        <mxPoint x="340" y="210" as="targetPoint"/>
                    </mxGeometry>
                </mxCell>
                <mxCell id="50" value="" style="edgeStyle=orthogonalEdgeStyle;html=1;endArrow=block;elbow=vertical;startArrow=none;endFill=1;strokeColor=#545B64;rounded=0;" edge="1" parent="1" source="13" target="15">
                    <mxGeometry width="100" relative="1" as="geometry">
                        <mxPoint x="440" y="200" as="sourcePoint"/>
                        <mxPoint x="490" y="230" as="targetPoint"/>
                    </mxGeometry>
                </mxCell>
                <mxCell id="51" value="" style="edgeStyle=orthogonalEdgeStyle;html=1;endArrow=block;elbow=vertical;startArrow=none;endFill=1;strokeColor=#545B64;rounded=0;entryX=0.5;entryY=0;entryDx=0;entryDy=0;" edge="1" parent="1" source="31" target="32">
                    <mxGeometry width="100" relative="1" as="geometry">
                        <mxPoint x="299.58" y="516.4999999999999" as="sourcePoint"/>
                        <mxPoint x="299.58" y="573.0000000000001" as="targetPoint"/>
                    </mxGeometry>
                </mxCell>
                <mxCell id="52" value="" style="edgeStyle=orthogonalEdgeStyle;html=1;endArrow=block;elbow=vertical;startArrow=none;endFill=1;strokeColor=#545B64;rounded=0;exitX=0.5;exitY=1;exitDx=0;exitDy=0;" edge="1" parent="1" source="32">
                    <mxGeometry width="100" relative="1" as="geometry">
                        <mxPoint x="299.58" y="645.5" as="sourcePoint"/>
                        <mxPoint x="300" y="690" as="targetPoint"/>
                    </mxGeometry>
                </mxCell>
                <mxCell id="53" value="" style="edgeStyle=orthogonalEdgeStyle;html=1;endArrow=block;elbow=vertical;startArrow=none;endFill=1;strokeColor=#545B64;rounded=0;" edge="1" parent="1" source="15" target="17">
                    <mxGeometry width="100" relative="1" as="geometry">
                        <mxPoint x="550" y="130" as="sourcePoint"/>
                        <mxPoint x="600" y="130" as="targetPoint"/>
                    </mxGeometry>
                </mxCell>
                <mxCell id="57" value="" style="edgeStyle=orthogonalEdgeStyle;html=1;endArrow=block;elbow=vertical;startArrow=block;startFill=1;endFill=1;strokeColor=#545B64;rounded=0;" edge="1" parent="1" source="13" target="12">
                    <mxGeometry width="100" relative="1" as="geometry">
                        <mxPoint x="370" y="110" as="sourcePoint"/>
                        <mxPoint x="610" y="60" as="targetPoint"/>
                        <Array as="points">
                            <mxPoint x="380" y="120"/>
                            <mxPoint x="740" y="120"/>
                        </Array>
                    </mxGeometry>
                </mxCell>
                <mxCell id="58" value="" style="edgeStyle=orthogonalEdgeStyle;html=1;endArrow=block;elbow=vertical;startArrow=block;startFill=1;endFill=1;strokeColor=#545B64;rounded=0;" edge="1" parent="1" source="14" target="12">
                    <mxGeometry width="100" relative="1" as="geometry">
                        <mxPoint x="240" y="280" as="sourcePoint"/>
                        <mxPoint x="740" y="280" as="targetPoint"/>
                        <Array as="points">
                            <mxPoint x="260" y="280"/>
                            <mxPoint x="740" y="280"/>
                        </Array>
                    </mxGeometry>
                </mxCell>
                <mxCell id="63" value="Cognito" style="text;html=1;strokeColor=none;fillColor=none;align=center;verticalAlign=middle;whiteSpace=wrap;rounded=1;" vertex="1" parent="1">
                    <mxGeometry x="687.5" y="828.5" width="60" height="30" as="geometry"/>
                </mxCell>
                <mxCell id="64" value="Auth" style="rounded=1;whiteSpace=wrap;html=1;fillColor=#e1d5e7;strokeColor=#9673a6;" vertex="1" parent="1">
                    <mxGeometry x="240" y="810.5" width="120" height="60" as="geometry"/>
                </mxCell>
                <mxCell id="65" value="" style="shape=flexArrow;endArrow=classic;html=1;rounded=1;width=30.833333333333336;endSize=8.55;fillColor=#e1d5e7;strokeColor=#9673a6;" edge="1" parent="1">
                    <mxGeometry width="50" height="50" relative="1" as="geometry">
                        <mxPoint x="410" y="843.0799999999999" as="sourcePoint"/>
                        <mxPoint x="573.5" y="843" as="targetPoint"/>
                    </mxGeometry>
                </mxCell>
                <mxCell id="66" value="Authenticate users" style="edgeLabel;html=1;align=center;verticalAlign=middle;resizable=0;points=[];labelBackgroundColor=none;" vertex="1" connectable="0" parent="65">
                    <mxGeometry x="-0.3931" y="3" relative="1" as="geometry">
                        <mxPoint x="30" y="3" as="offset"/>
                    </mxGeometry>
                </mxCell>
                <mxCell id="68" value="" style="outlineConnect=0;dashed=0;verticalLabelPosition=bottom;verticalAlign=top;align=center;html=1;shape=mxgraph.aws3.cognito;fillColor=#AD688B;gradientColor=none;rounded=1;labelBackgroundColor=none;" vertex="1" parent="1">
                    <mxGeometry x="601.25" y="797" width="76.5" height="93" as="geometry"/>
                </mxCell>
                <mxCell id="69" value="" style="edgeStyle=orthogonalEdgeStyle;html=1;endArrow=block;elbow=vertical;startArrow=block;startFill=1;endFill=1;strokeColor=#545B64;rounded=0;exitX=0;exitY=0.5;exitDx=0;exitDy=0;entryX=0;entryY=0.5;entryDx=0;entryDy=0;" edge="1" parent="1" source="30" target="64">
                    <mxGeometry width="100" relative="1" as="geometry">
                        <mxPoint x="180" y="370" as="sourcePoint"/>
                        <mxPoint x="150" y="840" as="targetPoint"/>
                        <Array as="points">
                            <mxPoint x="220" y="370"/>
                            <mxPoint x="220" y="841"/>
                        </Array>
                    </mxGeometry>
                </mxCell>
                <mxCell id="70" value="" style="edgeStyle=orthogonalEdgeStyle;html=1;endArrow=block;elbow=vertical;startArrow=block;startFill=1;endFill=1;strokeColor=#545B64;rounded=0;exitX=1;exitY=0.5;exitDx=0;exitDy=0;entryX=1;entryY=0.5;entryDx=0;entryDy=0;" edge="1" parent="1" source="31" target="64">
                    <mxGeometry width="100" relative="1" as="geometry">
                        <mxPoint x="390" y="540" as="sourcePoint"/>
                        <mxPoint x="380" y="840" as="targetPoint"/>
                        <Array as="points">
                            <mxPoint x="380" y="487"/>
                            <mxPoint x="380" y="841"/>
                        </Array>
                    </mxGeometry>
                </mxCell>
                <mxCell id="72" value="" style="edgeStyle=orthogonalEdgeStyle;html=1;endArrow=block;elbow=vertical;startArrow=none;endFill=1;strokeColor=#545B64;rounded=0;" edge="1" parent="1" source="19" target="14">
                    <mxGeometry width="100" relative="1" as="geometry">
                        <mxPoint x="190" y="110" as="sourcePoint"/>
                        <mxPoint x="220" y="215" as="targetPoint"/>
                    </mxGeometry>
                </mxCell>
                <mxCell id="76" value="Route 53" style="text;html=1;strokeColor=none;fillColor=none;align=center;verticalAlign=middle;whiteSpace=wrap;rounded=1;" vertex="1" parent="1">
                    <mxGeometry x="687.5" y="951.5" width="60" height="30" as="geometry"/>
                </mxCell>
                <mxCell id="77" value="DNS" style="rounded=1;whiteSpace=wrap;html=1;fillColor=#ffe6cc;strokeColor=#d79b00;" vertex="1" parent="1">
                    <mxGeometry x="240" y="933.5" width="120" height="60" as="geometry"/>
                </mxCell>
                <mxCell id="78" value="" style="shape=flexArrow;endArrow=classic;html=1;rounded=1;width=30.833333333333336;endSize=8.55;fillColor=#ffe6cc;strokeColor=#d79b00;" edge="1" parent="1">
                    <mxGeometry width="50" height="50" relative="1" as="geometry">
                        <mxPoint x="410" y="966.0799999999999" as="sourcePoint"/>
                        <mxPoint x="573.4999999999998" y="966" as="targetPoint"/>
                    </mxGeometry>
                </mxCell>
                <mxCell id="79" value="Translate URL" style="edgeLabel;html=1;align=center;verticalAlign=middle;resizable=0;points=[];labelBackgroundColor=none;" vertex="1" connectable="0" parent="78">
                    <mxGeometry x="-0.3931" y="3" relative="1" as="geometry">
                        <mxPoint x="30" y="3" as="offset"/>
                    </mxGeometry>
                </mxCell>
                <mxCell id="81" value="" style="edgeStyle=orthogonalEdgeStyle;html=1;endArrow=block;elbow=vertical;startArrow=block;startFill=1;endFill=1;strokeColor=#545B64;rounded=0;exitX=0;exitY=0.25;exitDx=0;exitDy=0;" edge="1" parent="1" source="30" target="77">
                    <mxGeometry width="100" relative="1" as="geometry">
                        <mxPoint x="210" y="374.2499999999999" as="sourcePoint"/>
                        <mxPoint x="220" y="960" as="targetPoint"/>
                        <Array as="points">
                            <mxPoint x="190" y="355"/>
                            <mxPoint x="190" y="970"/>
                        </Array>
                    </mxGeometry>
                </mxCell>
                <mxCell id="82" value="" style="outlineConnect=0;dashed=0;verticalLabelPosition=bottom;verticalAlign=top;align=center;html=1;shape=mxgraph.aws3.route_53;fillColor=#F58536;gradientColor=none;rounded=1;labelBackgroundColor=none;" vertex="1" parent="1">
                    <mxGeometry x="601" y="924" width="70.5" height="85.5" as="geometry"/>
                </mxCell>
                <mxCell id="83" value="" style="edgeStyle=orthogonalEdgeStyle;html=1;endArrow=block;elbow=vertical;startArrow=none;endFill=1;strokeColor=#545B64;rounded=0;" edge="1" parent="1" source="14" target="18">
                    <mxGeometry width="100" relative="1" as="geometry">
                        <mxPoint x="260" y="150" as="sourcePoint"/>
                        <mxPoint x="140" y="60" as="targetPoint"/>
                    </mxGeometry>
                </mxCell>
                <mxCell id="84" value="Cloud Front" style="text;html=1;strokeColor=none;fillColor=none;align=center;verticalAlign=middle;whiteSpace=wrap;rounded=1;" vertex="1" parent="1">
                    <mxGeometry x="687.5" y="1061.5" width="60" height="30" as="geometry"/>
                </mxCell>
                <mxCell id="85" value="Cache" style="rounded=1;whiteSpace=wrap;html=1;fillColor=#ffe6cc;strokeColor=#d79b00;" vertex="1" parent="1">
                    <mxGeometry x="240" y="1046.5" width="120" height="60" as="geometry"/>
                </mxCell>
                <mxCell id="86" value="" style="shape=flexArrow;endArrow=classic;html=1;rounded=1;width=30.833333333333336;endSize=8.55;fillColor=#ffe6cc;strokeColor=#d79b00;" edge="1" parent="1">
                    <mxGeometry width="50" height="50" relative="1" as="geometry">
                        <mxPoint x="410" y="1079.08" as="sourcePoint"/>
                        <mxPoint x="573.4999999999998" y="1079" as="targetPoint"/>
                    </mxGeometry>
                </mxCell>
                <mxCell id="87" value="Improve performance" style="edgeLabel;html=1;align=center;verticalAlign=middle;resizable=0;points=[];labelBackgroundColor=none;" vertex="1" connectable="0" parent="86">
                    <mxGeometry x="-0.3931" y="3" relative="1" as="geometry">
                        <mxPoint x="30" y="3" as="offset"/>
                    </mxGeometry>
                </mxCell>
                <mxCell id="89" value="" style="outlineConnect=0;dashed=0;verticalLabelPosition=bottom;verticalAlign=top;align=center;html=1;shape=mxgraph.aws3.cloudfront;fillColor=#F58536;gradientColor=none;rounded=1;labelBackgroundColor=none;" vertex="1" parent="1">
                    <mxGeometry x="598" y="1030" width="76.5" height="93" as="geometry"/>
                </mxCell>
                <mxCell id="90" value="" style="edgeStyle=orthogonalEdgeStyle;html=1;endArrow=block;elbow=vertical;startArrow=block;startFill=1;endFill=1;strokeColor=#545B64;rounded=0;exitX=0;exitY=0.75;exitDx=0;exitDy=0;" edge="1" parent="1" source="30" target="85">
                    <mxGeometry width="100" relative="1" as="geometry">
                        <mxPoint x="210" y="384.9999999999999" as="sourcePoint"/>
                        <mxPoint x="210" y="1000.0000000000002" as="targetPoint"/>
                        <Array as="points">
                            <mxPoint x="170" y="385"/>
                            <mxPoint x="170" y="1077"/>
                        </Array>
                    </mxGeometry>
                </mxCell>
                <mxCell id="91" value="S3" style="swimlane;whiteSpace=wrap;html=1;rounded=1;labelBackgroundColor=none;" vertex="1" parent="1">
                    <mxGeometry x="-70" y="1160" width="200" height="200" as="geometry"/>
                </mxCell>
                <mxCell id="98" value="SPA" style="rounded=1;whiteSpace=wrap;html=1;labelBackgroundColor=none;" vertex="1" parent="91">
                    <mxGeometry x="40" y="50" width="120" height="60" as="geometry"/>
                </mxCell>
                <mxCell id="93" value="API Gateway" style="swimlane;whiteSpace=wrap;html=1;rounded=1;labelBackgroundColor=none;" vertex="1" parent="1">
                    <mxGeometry x="370" y="1160" width="200" height="280" as="geometry"/>
                </mxCell>
                <mxCell id="95" value="GET" style="rounded=1;whiteSpace=wrap;html=1;labelBackgroundColor=none;" vertex="1" parent="93">
                    <mxGeometry x="40" y="50" width="120" height="60" as="geometry"/>
                </mxCell>
                <mxCell id="96" value="POST" style="rounded=1;whiteSpace=wrap;html=1;labelBackgroundColor=none;" vertex="1" parent="93">
                    <mxGeometry x="40" y="130" width="120" height="60" as="geometry"/>
                </mxCell>
                <mxCell id="97" value="DELETE" style="rounded=1;whiteSpace=wrap;html=1;labelBackgroundColor=none;" vertex="1" parent="93">
                    <mxGeometry x="40" y="210" width="120" height="60" as="geometry"/>
                </mxCell>
                <mxCell id="99" value="" style="endArrow=classic;html=1;rounded=1;exitX=1;exitY=0.5;exitDx=0;exitDy=0;entryX=0;entryY=0.5;entryDx=0;entryDy=0;" edge="1" parent="1" source="98" target="95">
                    <mxGeometry width="50" height="50" relative="1" as="geometry">
                        <mxPoint x="220" y="1270" as="sourcePoint"/>
                        <mxPoint x="270" y="1220" as="targetPoint"/>
                    </mxGeometry>
                </mxCell>
                <mxCell id="100" value="" style="endArrow=classic;html=1;rounded=1;entryX=0;entryY=0.5;entryDx=0;entryDy=0;exitX=1;exitY=0.5;exitDx=0;exitDy=0;" edge="1" parent="1" source="98" target="96">
                    <mxGeometry width="50" height="50" relative="1" as="geometry">
                        <mxPoint x="90" y="1260" as="sourcePoint"/>
                        <mxPoint x="270" y="1270" as="targetPoint"/>
                    </mxGeometry>
                </mxCell>
                <mxCell id="101" value="" style="endArrow=classic;html=1;rounded=1;entryX=0;entryY=0.5;entryDx=0;entryDy=0;exitX=1;exitY=0.5;exitDx=0;exitDy=0;" edge="1" parent="1" source="98" target="97">
                    <mxGeometry width="50" height="50" relative="1" as="geometry">
                        <mxPoint x="160" y="1260" as="sourcePoint"/>
                        <mxPoint x="240" y="1360" as="targetPoint"/>
                    </mxGeometry>
                </mxCell>
                <mxCell id="102" value="Lambda" style="swimlane;whiteSpace=wrap;html=1;rounded=1;labelBackgroundColor=none;" vertex="1" parent="1">
                    <mxGeometry x="598" y="1160" width="200" height="200" as="geometry"/>
                </mxCell>
                <mxCell id="103" value="Business Logic" style="rounded=1;whiteSpace=wrap;html=1;labelBackgroundColor=none;" vertex="1" parent="102">
                    <mxGeometry x="40" y="80" width="120" height="60" as="geometry"/>
                </mxCell>
                <mxCell id="104" value="" style="endArrow=classic;html=1;rounded=1;exitX=1;exitY=0.5;exitDx=0;exitDy=0;entryX=0;entryY=0.25;entryDx=0;entryDy=0;" edge="1" parent="1" source="95" target="103">
                    <mxGeometry width="50" height="50" relative="1" as="geometry">
                        <mxPoint x="640" y="1450" as="sourcePoint"/>
                        <mxPoint x="690" y="1400" as="targetPoint"/>
                    </mxGeometry>
                </mxCell>
                <mxCell id="105" value="" style="endArrow=classic;html=1;rounded=1;exitX=1;exitY=0.5;exitDx=0;exitDy=0;entryX=0;entryY=0.5;entryDx=0;entryDy=0;" edge="1" parent="1" source="96" target="103">
                    <mxGeometry width="50" height="50" relative="1" as="geometry">
                        <mxPoint x="620" y="1430" as="sourcePoint"/>
                        <mxPoint x="670" y="1380" as="targetPoint"/>
                    </mxGeometry>
                </mxCell>
                <mxCell id="106" value="" style="endArrow=classic;html=1;rounded=1;exitX=1;exitY=0.5;exitDx=0;exitDy=0;entryX=0;entryY=0.75;entryDx=0;entryDy=0;" edge="1" parent="1" source="97" target="103">
                    <mxGeometry width="50" height="50" relative="1" as="geometry">
                        <mxPoint x="630" y="1410" as="sourcePoint"/>
                        <mxPoint x="680" y="1360" as="targetPoint"/>
                    </mxGeometry>
                </mxCell>
                <mxCell id="107" value="DynamoDB" style="swimlane;whiteSpace=wrap;html=1;rounded=1;labelBackgroundColor=none;" vertex="1" parent="1">
                    <mxGeometry x="820" y="1160" width="200" height="200" as="geometry"/>
                </mxCell>
                <mxCell id="108" value="Data Domains" style="rounded=1;whiteSpace=wrap;html=1;labelBackgroundColor=none;" vertex="1" parent="107">
                    <mxGeometry x="50" y="80" width="120" height="60" as="geometry"/>
                </mxCell>
                <mxCell id="109" value="" style="endArrow=classic;html=1;rounded=1;entryX=0;entryY=0.5;entryDx=0;entryDy=0;" edge="1" parent="1" target="108">
                    <mxGeometry width="50" height="50" relative="1" as="geometry">
                        <mxPoint x="760" y="1270" as="sourcePoint"/>
                        <mxPoint x="850" y="1360" as="targetPoint"/>
                    </mxGeometry>
                </mxCell>
                <mxCell id="111" value="Cognito" style="swimlane;whiteSpace=wrap;html=1;rounded=1;labelBackgroundColor=none;" vertex="1" parent="1">
                    <mxGeometry x="150" y="1160" width="200" height="200" as="geometry"/>
                </mxCell>
            </root>
        </mxGraphModel>
    </diagram>
</mxfile>